# xmcd
#
# Track frame offsets:
#	180
#	32826
#	62530
#	92776
#	126327
#	167380
#	188006
#	209456
#	226958
#	247859
#
# Disc length: 3811 seconds
#
# Revision: 2
# Processed by: cddbd v1.5.1PL2 Copyright (c) Steve Scherf et al.
# Submitted via: MusicManager 7.0.6.0 
#
DISCID=7c0ee10a
DTITLE=Hubert Sumlin - Wake Up Call
DYEAR=1998
DGENRE=
TTITLE0=I'm Coming Home
TTITLE1=Makes Me Think About The One I Had
TTITLE2=When You're In Love
TTITLE3=I'm Your Baby
TTITLE4=Wake Up Call
TTITLE5=Gonna Move
TTITLE6=Let Your Fingers Do The Talkin'
TTITLE7=I Just Need Your Love
TTITLE8=Hubert Runs The Hoodoo Down
TTITLE9=Get This Love Straight
EXTD=
EXTT0=
EXTT1=
EXTT2=
EXTT3=
EXTT4=
EXTT5=
EXTT6=
EXTT7=
EXTT8=
EXTT9=
PLAYORDER=
